<?xml version="1.0" standalone="yes"?>
<svg xmlns="http://www.w3.org/2000/svg" width="1075" height="1075">
<path style="fill:#ffffff; stroke:none;" d="M0 0L0 1075L1075 1075L1075 0L0 0z"/>
<path style="fill:#e9ae46; stroke:none;" d="M656 445L656 446L664 446L656 445z"/>
<path style="fill:#678970; stroke:none;" d="M598 451C608.055 462.818 625.596 468.941 639 476.039C650.096 481.915 658.945 491.254 670 497.015C683.088 503.837 699.466 505.7 714 506L708 519L709 519L715 506L706 498L707 501C671.721 500.272 644.664 471.337 614 457L614 456C647.461 453.359 682.477 439.779 705.692 473C709.513 478.468 713.687 485.169 714 492L720 494C719.027 487.413 716.487 480.863 713.359 475C689.471 430.226 637.873 451 598 451z"/>
<path style="fill:#e9ae46; stroke:none;" d="M647 446L648 447L647 446M676 446L677 447L676 446M776.667 446.333L777.333 446.667L776.667 446.333z"/>
<path style="fill:#678970; stroke:none;" d="M778 446L778 447L784 447L778 446z"/>
<path style="fill:#252724; stroke:none;" d="M722 496C700.605 481.591 673.273 468.542 647 468L647 469C665.608 471.405 683.045 481.631 698 492.424C703.811 496.618 708.746 502.688 715 506C703.079 534.631 682.595 564.236 680 596L709 595C711.009 569.76 722.051 549.269 730 526C744.653 543.347 758.137 574.228 760 597C764.808 596.78 781.555 593.845 783.292 588.722C784.726 584.491 779.5 576.842 777.85 573C771.211 557.544 762.378 542.66 752.572 529C748.459 523.271 737.588 515.351 742.063 508C748.945 496.697 763.896 473.902 778 472.186C786.652 471.133 809.697 484.489 802.932 495.57C800.266 499.938 788.697 501.367 784 502L784 503L823 526L844 484L827 488C827 457.494 799.013 439.162 770 449.1C750.142 455.902 730.856 477.281 722 496z"/>
<path style="fill:#678970; stroke:none;" d="M790 446L790 447L794 447L790 446z"/>
<path style="fill:#e9ae46; stroke:none;" d="M794.667 446.333L795.333 446.667L794.667 446.333M640 447L640 448L644 448L640 447M680 447L681 448L680 447M772 447L773 448L772 447z"/>
<path style="fill:#678970; stroke:none;" d="M773 447L773 448L777 448L773 447M796.667 447.333L797.333 447.667L796.667 447.333z"/>
<path style="fill:#e9ae46; stroke:none;" d="M798.667 447.333L799.333 447.667L798.667 447.333M634 448L634 449L638 449L634 448M682 448L683 449L682 448M769 448L770 449L769 448z"/>
<path style="fill:#678970; stroke:none;" d="M770.667 448.333L771.333 448.667L770.667 448.333M799.667 448.333L800.333 448.667L799.667 448.333z"/>
<path style="fill:#e9ae46; stroke:none;" d="M801 448L802 449L801 448M628.667 449.333L629.333 449.667L628.667 449.333M685 449L686 450L685 449M766.667 449.333L767.333 449.667L766.667 449.333z"/>
<path style="fill:#678970; stroke:none;" d="M768 449L769 450L768 449M802.667 449.333L803.333 449.667L802.667 449.333z"/>
<path style="fill:#e9ae46; stroke:none;" d="M597 452L618 451C613.508 449.115 600.349 448.168 597 452M653 450L653 451L656 451L653 450z"/>
<path style="fill:#ffffff; stroke:none;" d="M614 456L614 457C644.49 471.421 670.779 499.977 706 500C688.652 478.689 661.107 476.942 638 467C662.613 461.648 692.332 478.999 713 490C712.421 483.415 709.277 477.36 705.485 472C681.77 438.477 646.964 455.909 614 456z"/>
<path style="fill:#e9ae46; stroke:none;" d="M668 450L668 451L672 451L668 450M688 450L689 451L688 450z"/>
<path style="fill:#678970; stroke:none;" d="M763 451L763 452L767 451L763 451M804 450L804 451L810 453L810 452L804 450z"/>
<path style="fill:#e9ae46; stroke:none;" d="M806 450L807 451L806 450M647 451L647 452L650 452L647 451M673.667 451.333L674.333 451.667L673.667 451.333M690 451L691 452L690 451M762 451L763 452L762 451M808 451L809 452L808 451M598 452L599 453L598 452M642 452L643 453L642 452M678.667 452.333L679.333 452.667L678.667 452.333M691 452L692 453L691 452M760 452L761 453L760 452z"/>
<path style="fill:#678970; stroke:none;" d="M761 452L762 453L761 452z"/>
<path style="fill:#e9ae46; stroke:none;" d="M635 453L636 454L635 453M681 453L682 454L681 453M693 453L694 454L693 453M758 453L759 454L758 453z"/>
<path style="fill:#678970; stroke:none;" d="M759 453L760 454L759 453M810 453L811 454L810 453z"/>
<path style="fill:#e9ae46; stroke:none;" d="M811 453L812 454L811 453M601 454L602 455L601 454M628 454L628 455L632 455L628 454M684 454L685 455L684 454M695 454L696 455L695 454z"/>
<path style="fill:#678970; stroke:none;" d="M757.667 454.333L758.333 454.667L757.667 454.333M812 454L813 455L812 454z"/>
<path style="fill:#e9ae46; stroke:none;" d="M603 455L604 456L603 455M618 455L618 456L623 456L618 455M686.667 455.333L687.333 455.667L686.667 455.333M696 455L697 456L696 455z"/>
<path style="fill:#678970; stroke:none;" d="M756 455L757 456L756 455M813 455L815 457L813 455z"/>
<path style="fill:#e9ae46; stroke:none;" d="M814 455L815 456L814 455M604 456L605 457L604 456M688 456L689 457L688 456z"/>
<path style="fill:#678970; stroke:none;" d="M755 456L756 457L755 456z"/>
<path style="fill:#e9ae46; stroke:none;" d="M815 456L816 457L815 456M606 457L607 458L606 457M615 457L616 458L615 457M690 457L691 458L690 457M753 457L754 458L753 457z"/>
<path style="fill:#678970; stroke:none;" d="M754 457L755 458L754 457M816 457L817 458L816 457z"/>
<path style="fill:#e9ae46; stroke:none;" d="M607 458L608 459L607 458M617 458L618 459L617 458M691 458L692 459L691 458M700 458L701 459L700 458z"/>
<path style="fill:#678970; stroke:none;" d="M752.667 458.333L753.333 458.667L752.667 458.333M817 458L819 460L817 458z"/>
<path style="fill:#e9ae46; stroke:none;" d="M818 458L819 459L818 458M608 459L609 460L608 459M618 459L619 460L618 459M701 459L702 460L701 459M751 459L752 460L751 459M610 460L611 461L610 460z"/>
<path style="fill:#252724; stroke:none;" d="M615 460L616 461L615 460z"/>
<path style="fill:#e9ae46; stroke:none;" d="M620 460L621 461L620 460M694 460L695 461L694 460z"/>
<path style="fill:#678970; stroke:none;" d="M750 460L751 461L750 460M819 460L820 461L819 460z"/>
<path style="fill:#e9ae46; stroke:none;" d="M612 461L613 462L612 461M703 461L704 462L703 461z"/>
<path style="fill:#678970; stroke:none;" d="M749 461L750 462L749 461z"/>
<path style="fill:#e9ae46; stroke:none;" d="M820 461L822 463L820 461M613 462L614 463L613 462M623 462L624 463L623 462M704 462L705 463L704 462z"/>
<path style="fill:#678970; stroke:none;" d="M748 462L749 463L748 462M820 462L821 463L820 462z"/>
<path style="fill:#e9ae46; stroke:none;" d="M615 463L616 464L615 463M624.667 463.333L625.333 463.667L624.667 463.333M698 463L699 464L698 463M705 463L706 464L705 463z"/>
<path style="fill:#678970; stroke:none;" d="M747 463L748 464L747 463M821 463L822 464L821 463z"/>
<path style="fill:#e9ae46; stroke:none;" d="M616 464L617 465L616 464M699 464L700 465L699 464M706 464L707 465L706 464z"/>
<path style="fill:#678970; stroke:none;" d="M746 464L747 465L746 464M822 464L824 467L822 464z"/>
<path style="fill:#e9ae46; stroke:none;" d="M618 465L619 466L618 465M628 465L629 466L628 465z"/>
<path style="fill:#678970; stroke:none;" d="M745 465L746 466L745 465z"/>
<path style="fill:#e9ae46; stroke:none;" d="M823 465L824 466L823 465M630 466L631 467L630 466M638 467L638 468L645 467L638 467z"/>
<path style="fill:#678970; stroke:none;" d="M744 466L745 467L744 466z"/>
<path style="fill:#e9ae46; stroke:none;" d="M621 467L622 468L621 467M632 467L633 468L632 467z"/>
<path style="fill:#678970; stroke:none;" d="M639 467L639 468L651 470L639 467z"/>
<path style="fill:#e9ae46; stroke:none;" d="M647 467L648 468L647 467z"/>
<path style="fill:#678970; stroke:none;" d="M648 467L649 468L648 467z"/>
<path style="fill:#e9ae46; stroke:none;" d="M649 467L649 468L652 468L649 467M708 467L709 468L708 467z"/>
<path style="fill:#678970; stroke:none;" d="M743 467L744 468L743 467z"/>
<path style="fill:#e9ae46; stroke:none;" d="M824 467L825 468L824 467M623 468L624 469L623 468M635 468L636 469L635 468M641 468L642 469L641 468z"/>
<path style="fill:#678970; stroke:none;" d="M653 468L653 469L658 469L653 468z"/>
<path style="fill:#e9ae46; stroke:none;" d="M658 468L659 469L658 468M702 468L703 469L702 468M709 468L710 469L709 468z"/>
<path style="fill:#678970; stroke:none;" d="M742 468L743 469L742 468M824 468L825 472L826 472L824 468z"/>
<path style="fill:#e9ae46; stroke:none;" d="M625 469L626 470L625 469M637 469L638 470L637 469M645.667 469.333L646.333 469.667L645.667 469.333z"/>
<path style="fill:#678970; stroke:none;" d="M659 469L659 470L668 471L659 469z"/>
<path style="fill:#e9ae46; stroke:none;" d="M664.667 469.333L665.333 469.667L664.667 469.333M703 469L704 470L703 469z"/>
<path style="fill:#678970; stroke:none;" d="M741 469L742 470L741 469z"/>
<path style="fill:#e9ae46; stroke:none;" d="M825 469L826 470L825 469M627 470L628 471L627 470M639 470L640 471L639 470M650.667 470.333L651.333 470.667L650.667 470.333z"/>
<path style="fill:#678970; stroke:none;" d="M652 470L652 471L658 472L652 470z"/>
<path style="fill:#e9ae46; stroke:none;" d="M668.667 470.333L669.333 470.667L668.667 470.333z"/>
<path style="fill:#678970; stroke:none;" d="M740 470L741 471L740 470z"/>
<path style="fill:#e9ae46; stroke:none;" d="M629 471L630 472L629 471M641 471L642 472L641 471M655 471L656 472L655 471z"/>
<path style="fill:#678970; stroke:none;" d="M669.667 471.333L670.333 471.667L669.667 471.333z"/>
<path style="fill:#e9ae46; stroke:none;" d="M671 471L672 472L671 471z"/>
<path style="fill:#678970; stroke:none;" d="M739 471L740 472L739 471z"/>
<path style="fill:#e9ae46; stroke:none;" d="M826.333 471.667L826.667 472.333L826.333 471.667M631 472L632 473L631 472M643 472L644 473L643 472M658.667 472.333L659.333 472.667L658.667 472.333z"/>
<path style="fill:#678970; stroke:none;" d="M660 472L660 473L667 475L667 474L660 472M673 472L673 473L676 473L673 472M738 472L735 477L738 472M775 472L775 473L779 473L775 472z"/>
<path style="fill:#e9ae46; stroke:none;" d="M779 472L779 473L782 473L779 472z"/>
<path style="fill:#678970; stroke:none;" d="M782 472L782 473L786 473L782 472z"/>
<path style="fill:#e9ae46; stroke:none;" d="M633 473L634 474L633 473M645 473L646 474L645 473M661 473L662 474L661 473z"/>
<path style="fill:#678970; stroke:none;" d="M676.667 473.333L677.333 473.667L676.667 473.333z"/>
<path style="fill:#e9ae46; stroke:none;" d="M678 473L679 474L678 473M712 473L713 474L712 473M737 473L738 474L737 473z"/>
<path style="fill:#678970; stroke:none;" d="M772.667 473.333L773.333 473.667L772.667 473.333z"/>
<path style="fill:#e9ae46; stroke:none;" d="M774.667 473.333L775.333 473.667L774.667 473.333M785.667 473.333L786.333 473.667L785.667 473.333z"/>
<path style="fill:#678970; stroke:none;" d="M787 473L787 474L790 475L787 473M826 473L826 476L827 476L826 473z"/>
<path style="fill:#e9ae46; stroke:none;" d="M635.667 474.333L636.333 474.667L635.667 474.333M646 474L647 475L646 474M664 474L665 475L664 474z"/>
<path style="fill:#678970; stroke:none;" d="M679.667 474.333L680.333 474.667L679.667 474.333z"/>
<path style="fill:#e9ae46; stroke:none;" d="M681 474L682 475L681 474M736 474L737 475L736 474z"/>
<path style="fill:#678970; stroke:none;" d="M766 479L772 475L766 479z"/>
<path style="fill:#e9ae46; stroke:none;" d="M788 474L789 475L788 474M637 475L638 476L637 475M648 475L649 476L648 475M667 475L668 476L667 475z"/>
<path style="fill:#678970; stroke:none;" d="M668 475L669 476L668 475M682 475L683 476L682 475z"/>
<path style="fill:#e9ae46; stroke:none;" d="M683 475L684 476L683 475M713 475L714 476L713 475M735 475L736 476L735 475M770 475L771 476L770 475M790 475L792 477L790 475z"/>
<path style="fill:#678970; stroke:none;" d="M791 475L792 476L791 475z"/>
<path style="fill:#e9ae46; stroke:none;" d="M639.667 476.333L640.333 476.667L639.667 476.333M669 476L670 477L669 476z"/>
<path style="fill:#678970; stroke:none;" d="M670 476L670 477L674 478L674 477L670 476M685 476L688 478L688 477L685 476z"/>
<path style="fill:#e9ae46; stroke:none;" d="M686 476L687 477L686 476M708.333 476.667L708.667 477.333L708.333 476.667M714 476L715 477L714 476M769 476L770 477L769 476z"/>
<path style="fill:#678970; stroke:none;" d="M792 476L793 477L792 476z"/>
<path style="fill:#e9ae46; stroke:none;" d="M827.333 476.667L827.667 477.333L827.333 476.667M641 477L642 478L641 477M651 477L652 478L651 477M671 477L672 478L671 477M688 477L689 478L688 477z"/>
<path style="fill:#678970; stroke:none;" d="M734 477L735 478L734 477z"/>
<path style="fill:#e9ae46; stroke:none;" d="M768 477L769 478L768 477M793 477L799 483L793 477z"/>
<path style="fill:#678970; stroke:none;" d="M794 477L795 478L794 477z"/>
<path style="fill:#e9ae46; stroke:none;" d="M643 478L644 479L643 478M653 478L654 479L653 478z"/>
<path style="fill:#678970; stroke:none;" d="M674.667 478.333L675.333 478.667L674.667 478.333M689 478L690 479L689 478z"/>
<path style="fill:#e9ae46; stroke:none;" d="M690 478L691 479L690 478z"/>
<path style="fill:#678970; stroke:none;" d="M733 478L734 479L733 478z"/>
<path style="fill:#e9ae46; stroke:none;" d="M767 478L768 479L767 478z"/>
<path style="fill:#678970; stroke:none;" d="M795 478L796 479L795 478M827 478C827 481.768 825.587 487.054 830 488L830 487L827 478z"/>
<path style="fill:#e9ae46; stroke:none;" d="M654 479L655 480L654 479M676 479L677 480L676 479z"/>
<path style="fill:#678970; stroke:none;" d="M677 479L678 480L677 479M691 479L692 480L691 479z"/>
<path style="fill:#e9ae46; stroke:none;" d="M692 479L693 480L692 479M715 479L716 480L715 479M732 479L731 481L732 479z"/>
<path style="fill:#678970; stroke:none;" d="M765 479L766 480L765 479M796 479L797 480L796 479z"/>
<path style="fill:#e9ae46; stroke:none;" d="M646 480L647 481L646 480M678 480L679 481L678 480z"/>
<path style="fill:#678970; stroke:none;" d="M679 480L680 481L679 480M693 480L693 481L698 483L698 482L693 480z"/>
<path style="fill:#e9ae46; stroke:none;" d="M695 480L696 481L695 480M710 480L711 481L710 480z"/>
<path style="fill:#678970; stroke:none;" d="M732 480L733 481L732 480M764 480L765 481L764 480M797 480L798 481L797 480z"/>
<path style="fill:#e9ae46; stroke:none;" d="M648 481L649 482L648 481z"/>
<path style="fill:#678970; stroke:none;" d="M680 481L680 482L683 483L680 481z"/>
<path style="fill:#e9ae46; stroke:none;" d="M697 481L698 482L697 481M716 481L717 482L716 481z"/>
<path style="fill:#678970; stroke:none;" d="M731 481L732 482L731 481M763 481L764 482L763 481M798 481L799 482L798 481z"/>
<path style="fill:#e9ae46; stroke:none;" d="M649 482L650 483L649 482M658 482L659 483L658 482M681 482L682 483L681 482M698 482L699 483L698 482M711 482L712 483L711 482z"/>
<path style="fill:#678970; stroke:none;" d="M730 482L728 486L730 482M762 482L763 483L762 482z"/>
<path style="fill:#e9ae46; stroke:none;" d="M651 483L652 484L651 483M683 483L684 484L683 483z"/>
<path style="fill:#678970; stroke:none;" d="M684 483L685 484L684 483M700 483L700 484L706 487L706 486L700 483z"/>
<path style="fill:#e9ae46; stroke:none;" d="M701 483L702 484L701 483M717.333 483.667L717.667 484.333L717.333 483.667M729 483L730 484L729 483z"/>
<path style="fill:#678970; stroke:none;" d="M761 483L757 489L758 489L761 483M799 483L800 486L801 486L799 483M842 483L842 484L845 485L842 483z"/>
<path style="fill:#e9ae46; stroke:none;" d="M845 483L846 484L845 483M685 484L687 486L685 484z"/>
<path style="fill:#678970; stroke:none;" d="M686 484L687 485L686 484z"/>
<path style="fill:#e9ae46; stroke:none;" d="M703 484L704 485L703 484M728 484L729 485L728 484M761 484L762 485L761 484M799 484L800 485L799 484M837.667 484.333L838.333 484.667L837.667 484.333z"/>
<path style="fill:#678970; stroke:none;" d="M839 484L839 485L842 485L839 484z"/>
<path style="fill:#e9ae46; stroke:none;" d="M662 485L663 486L662 485z"/>
<path style="fill:#678970; stroke:none;" d="M687 485L688 486L687 485z"/>
<path style="fill:#e9ae46; stroke:none;" d="M705 485L706 486L705 485M712 485L713 486L712 485M760 485L761 486L760 485M833 485L833 486L836 486L833 485z"/>
<path style="fill:#678970; stroke:none;" d="M836.667 485.333L837.333 485.667L836.667 485.333z"/>
<path style="fill:#e9ae46; stroke:none;" d="M844 485L845 486L844 485M250 505L247 503L255 515L256 515L252 506C253.971 507.524 256.293 509.835 259.002 509.699C262.491 509.525 265.952 505.811 269 504.277C274.603 501.457 292.594 498.483 283.972 487.603C281.699 484.735 275.984 486.369 273.015 486.945C264.769 488.546 248.351 494.869 250 505M655 486L656 487L655 486z"/>
<path style="fill:#678970; stroke:none;" d="M688.667 486.333L689.333 486.667L688.667 486.333z"/>
<path style="fill:#e9ae46; stroke:none;" d="M706 486L707 487L706 486z"/>
<path style="fill:#678970; stroke:none;" d="M727 486L728 487L727 486z"/>
<path style="fill:#e9ae46; stroke:none;" d="M759 486L760 487L759 486z"/>
<path style="fill:#678970; stroke:none;" d="M801 486L802 487L801 486z"/>
<path style="fill:#e9ae46; stroke:none;" d="M831 486L832 487L831 486z"/>
<path style="fill:#678970; stroke:none;" d="M832.667 486.333L833.333 486.667L832.667 486.333M843 486L841 491L842 491L843 486z"/>
<path style="fill:#e9ae46; stroke:none;" d="M656 487L657 488L656 487z"/>
<path style="fill:#678970; stroke:none;" d="M690 487L690 488L694 490L690 487M707 487L707 488L711 490L711 489L707 487z"/>
<path style="fill:#e9ae46; stroke:none;" d="M708 487L709 488L708 487M718 487L719 488L718 487M726 487L727 488L726 487M758 487L759 488L758 487M801 487L802 488L801 487M843 487L844 488L843 487M666 488L667 489L666 488M691 488L692 489L691 488M710 488L711 489L710 488M713 488L715 491L713 488z"/>
<path style="fill:#678970; stroke:none;" d="M726 488L727 489L726 488M802 488L803 495L804 495L802 488z"/>
<path style="fill:#e9ae46; stroke:none;" d="M368 489L368 490L371 490L368 489z"/>
<path style="fill:#678970; stroke:none;" d="M371 489L371 490L416 490C404.299 485.09 383.742 489 371 489z"/>
<path style="fill:#e9ae46; stroke:none;" d="M416 489L416 490L422 490L416 489M473.667 489.333L474.333 489.667L473.667 489.333z"/>
<path style="fill:#678970; stroke:none;" d="M475 489L475 490L539 490L519 489L475 489z"/>
<path style="fill:#e9ae46; stroke:none;" d="M539.667 489.333L540.333 489.667L539.667 489.333M571 489L571 490L574 490L571 489z"/>
<path style="fill:#678970; stroke:none;" d="M574 489L574 490L637 490L617 489L574 489z"/>
<path style="fill:#e9ae46; stroke:none;" d="M637 489L638 490L637 489M667 489L668 490L667 489M692 489L693 490L692 489M711 489L712 490L711 489z"/>
<path style="fill:#678970; stroke:none;" d="M725 489L726 490L725 489M756 489L757 490L756 489z"/>
<path style="fill:#e9ae46; stroke:none;" d="M842 489L843 490L842 489M366 490L367 491L366 490z"/>
<path style="fill:#678970; stroke:none;" d="M367 490L368 491L367 490z"/>
<path style="fill:#252724; stroke:none;" d="M421 547C428.423 544.489 436.592 541.617 441.351 534.985C452.424 519.553 444.008 497.832 427 491.865C413.099 486.988 394.603 490 380 490C374.445 490 367.396 488.871 363.742 494.109C360.713 498.451 361.008 505.923 361 511L361 547C361 558.133 356.117 585.489 365.228 593.566C371.421 599.056 379.956 594.169 381.606 587C383.83 577.335 375.366 547.271 391 549.429C416.459 552.944 413.68 584.5 433.015 594.682C442.38 599.614 449.011 590.683 446.377 582C442.2 568.237 431.552 556.225 421 547z"/>
<path style="fill:#678970; stroke:none;" d="M422.667 490.333L423.333 490.667L422.667 490.333z"/>
<path style="fill:#e9ae46; stroke:none;" d="M424 490L425 491L424 490M471 490L472 491L471 490z"/>
<path style="fill:#678970; stroke:none;" d="M472.667 490.333L473.333 490.667L472.667 490.333z"/>
<path style="fill:#252724; stroke:none;" d="M487 506C502.917 506 519.111 506.875 535 505.957C540.72 505.626 546.9 501.668 544.393 495.044C541.968 488.638 533.414 490 528 490L486 490C480.651 490 473.457 488.887 469.434 493.279C464.82 498.315 467 509.664 467 516L467 565C467 571.85 465.276 581.522 467.894 587.956C470.498 594.358 478.25 593.998 484 594L530 594C535.542 594 544.78 594.986 546.551 587.981C548.647 579.688 540.073 578.03 534 578.001C522.334 577.944 510.666 578.001 499 578C493.668 578 487.662 578.795 487.059 571.995C486.613 566.97 484.669 551.13 489.318 548.028C492.287 546.046 497.611 547 501 547L529 547C534.676 546.99 542.277 545.876 540.523 538.015C539.093 531.608 532.13 532.002 527 532L500 532C496.844 532 492.088 532.821 489.318 530.972C484.284 527.613 487 511.458 487 506z"/>
<path style="fill:#678970; stroke:none;" d="M540.667 490.333L541.333 490.667L540.667 490.333z"/>
<path style="fill:#e9ae46; stroke:none;" d="M569 490L570 491L569 490z"/>
<path style="fill:#678970; stroke:none;" d="M570 490L571 491L570 490z"/>
<path style="fill:#252724; stroke:none;" d="M585 532L585 506L628 506C633.226 505.992 640.074 506.071 642.016 499.982C644.492 492.22 636.867 490.032 631 490.001C617.334 489.929 603.666 490 590 490C584.266 490 576.419 488.634 571.005 490.742C563.023 493.85 564 504.038 564 511L564 570C564 576.984 562.113 589.257 570.094 592.597C576.076 595.101 583.662 594 590 594L628 594C633.849 594 643.051 594.874 644.238 586.996C645.432 579.076 636.581 578.009 631 578L597 578C593.326 578 587.42 579.013 585.603 574.852C584.255 571.763 585 567.293 585 564C585 559.935 583.669 552.852 586.028 549.318C588.431 545.716 595.309 547 599 547C608.842 547 624.797 550.072 633.942 546.397C639.702 544.082 639.585 535.092 633.942 532.742C626.736 529.741 614.742 532 607 532L585 532z"/>
<path style="fill:#678970; stroke:none;" d="M638.667 490.333L639.333 490.667L638.667 490.333z"/>
<path style="fill:#e9ae46; stroke:none;" d="M660 490L661 491L660 490M694 490L695 491L694 490z"/>
<path style="fill:#678970; stroke:none;" d="M695 490L696 491L695 490M712 490L713 491L712 490z"/>
<path style="fill:#e9ae46; stroke:none;" d="M719 490L720 491L719 490z"/>
<path style="fill:#678970; stroke:none;" d="M724.333 490.667L724.667 491.333L724.333 490.667M755 490L753 493L755 490M364 491L361 503L362 503L366 491L364 491M426 491L426 492L430 493L430 492L426 491z"/>
<path style="fill:#e9ae46; stroke:none;" d="M428 491L429 492L428 491M469 491L470 492L469 491z"/>
<path style="fill:#678970; stroke:none;" d="M470 491L471 492L470 491M542 491L545 494L542 491z"/>
<path style="fill:#e9ae46; stroke:none;" d="M543 491L544 492L543 491M567 491L565 494L567 491z"/>
<path style="fill:#678970; stroke:none;" d="M568 491L569 492L568 491M640 491L642 493L640 491z"/>
<path style="fill:#e9ae46; stroke:none;" d="M641 491L642 492L641 491M661 491L662 492L661 491M670 491L671 492L670 491z"/>
<path style="fill:#678970; stroke:none;" d="M696 491L697 492L696 491z"/>
<path style="fill:#e9ae46; stroke:none;" d="M755 491L756 492L755 491z"/>
<path style="fill:#678970; stroke:none;" d="M840 491L839 494L840 491z"/>
<path style="fill:#e9ae46; stroke:none;" d="M430 492L431 493L430 492z"/>
<path style="fill:#678970; stroke:none;" d="M469 492L470 493L469 492z"/>
<path style="fill:#e9ae46; stroke:none;" d="M544 492L545 493L544 492z"/>
<path style="fill:#678970; stroke:none;" d="M567 492L568 493L567 492z"/>
<path style="fill:#e9ae46; stroke:none;" d="M663 492L664 493L663 492M672 492L673 493L672 492M697 492L699 494L697 492z"/>
<path style="fill:#678970; stroke:none;" d="M698 492L699 493L698 492M723 492L724 493L723 492z"/>
<path style="fill:#e9ae46; stroke:none;" d="M754 492L755 493L754 492M362 493L363 494L362 493z"/>
<path style="fill:#678970; stroke:none;" d="M431 493L432 494L431 493z"/>
<path style="fill:#e9ae46; stroke:none;" d="M432 493L433 494L432 493z"/>
<path style="fill:#678970; stroke:none;" d="M468 493L469 494L468 493z"/>
<path style="fill:#e9ae46; stroke:none;" d="M545.333 493.667L545.667 494.333L545.333 493.667z"/>
<path style="fill:#678970; stroke:none;" d="M566 493L567 494L566 493M642 493L639 505C643.047 501.707 644.498 497.807 642 493z"/>
<path style="fill:#e9ae46; stroke:none;" d="M664 493L665 494L664 493z"/>
<path style="fill:#678970; stroke:none;" d="M699 493L700 494L699 493M722 493L720 495L720 496L722 493z"/>
<path style="fill:#e9ae46; stroke:none;" d="M753 493L754 494L753 493M840 493L841 494L840 493z"/>
<path style="fill:#678970; stroke:none;" d="M433.667 494.333L434.333 494.667L433.667 494.333z"/>
<path style="fill:#e9ae46; stroke:none;" d="M467 494L468 495L467 494z"/>
<path style="fill:#678970; stroke:none;" d="M565 494L566 495L565 494z"/>
<path style="fill:#e9ae46; stroke:none;" d="M665 494L666 495L665 494M700 494L701 495L700 494M720.667 494.333L721.333 494.667L720.667 494.333z"/>
<path style="fill:#678970; stroke:none;" d="M752 494L753 495L752 494z"/>
<path style="fill:#e9ae46; stroke:none;" d="M839 494L840 495L839 494M361 495L362 496L361 495z"/>
<path style="fill:#678970; stroke:none;" d="M435 495L436 496L435 495M467 495L468 496L467 495M545 495L545 500L546 500L545 495z"/>
<path style="fill:#e9ae46; stroke:none;" d="M643.333 495.667L643.667 496.333L643.333 495.667M667 495L668 496L667 495M679 495L680 496L679 495M701 495L703 497L701 495z"/>
<path style="fill:#678970; stroke:none;" d="M702 495L703 496L702 495M751 495L749 498L751 495z"/>
<path style="fill:#e9ae46; stroke:none;" d="M803 495L800 496L800 497L804 496L803 495z"/>
<path style="fill:#678970; stroke:none;" d="M838.333 495.667L838.667 496.333L838.333 495.667M436 496L438 498L436 496z"/>
<path style="fill:#e9ae46; stroke:none;" d="M437 496L438 497L437 496M466.333 496.667L466.667 497.333L466.333 496.667M564 496L565 497L564 496M668 496L669 497L668 496M682.667 496.333L683.333 496.667L682.667 496.333z"/>
<path style="fill:#678970; stroke:none;" d="M703 496L704 497L703 496z"/>
<path style="fill:#e9ae46; stroke:none;" d="M751 496L752 497L751 496z"/>
<path style="fill:#678970; stroke:none;" d="M803 496L804 497L803 496M564 497L564 500L565 500L564 497z"/>
<path style="fill:#e9ae46; stroke:none;" d="M670 497L671 498L670 497M685 497L686 498L685 497z"/>
<path style="fill:#678970; stroke:none;" d="M704 497L705 498L704 497z"/>
<path style="fill:#e9ae46; stroke:none;" d="M750 497L751 498L750 497M798 497L799 498L798 497z"/>
<path style="fill:#678970; stroke:none;" d="M799 497L799 498L802 498L799 497M837 497L838 498L837 497z"/>
<path style="fill:#e9ae46; stroke:none;" d="M360 498L360 588L361 588L361 526L360 498z"/>
<path style="fill:#678970; stroke:none;" d="M438 498L441 501L438 498z"/>
<path style="fill:#e9ae46; stroke:none;" d="M439 498L440 499L439 498z"/>
<path style="fill:#678970; stroke:none;" d="M466 498L466 557L467 589L468 589L467 524L466 498z"/>
<path style="fill:#e9ae46; stroke:none;" d="M563 498L563 504L564 504L563 498M673 498L674 499L673 498M689 498L690 499L689 498M705 498L706 499L705 498M749 498L750 499L749 498M794.667 498.333L795.333 498.667L794.667 498.333z"/>
<path style="fill:#678970; stroke:none;" d="M796.667 498.333L797.333 498.667L796.667 498.333z"/>
<path style="fill:#e9ae46; stroke:none;" d="M837 498L838 499L837 498M440 499L441 500L440 499M643 499L644 500L643 499M675 499L676 500L675 499M695.667 499.333L696.333 499.667L695.667 499.333M706 499L700 500L700 501L706 499z"/>
<path style="fill:#678970; stroke:none;" d="M748 499L749 500L748 499z"/>
<path style="fill:#e9ae46; stroke:none;" d="M791 499L792 500L791 499z"/>
<path style="fill:#678970; stroke:none;" d="M792 499L792 500L795 500L792 499M836 499L837 500L836 499z"/>
<path style="fill:#e9ae46; stroke:none;" d="M545 500L544 503L545 500M677.667 500.333L678.333 500.667L677.667 500.333z"/>
<path style="fill:#678970; stroke:none;" d="M747 500L746 502L747 500z"/>
<path style="fill:#e9ae46; stroke:none;" d="M787.667 500.333L788.333 500.667L787.667 500.333z"/>
<path style="fill:#678970; stroke:none;" d="M789 500L789 501L792 501L789 500z"/>
<path style="fill:#e9ae46; stroke:none;" d="M836 500L837 501L836 500z"/>
<path style="fill:#678970; stroke:none;" d="M441 501L442 502L441 501M544 501L545 502L544 501z"/>
<path style="fill:#e9ae46; stroke:none;" d="M681 501L682 502L681 501M747 501L748 502L747 501M785 501L786 502L785 501z"/>
<path style="fill:#678970; stroke:none;" d="M786.667 501.333L787.333 501.667L786.667 501.333M835 501L834 504L835 504L835 501z"/>
<path style="fill:#e9ae46; stroke:none;" d="M442 502L443 503L442 502M642 502L643 503L642 502M685 502L686 503L685 502M746 502L747 503L746 502M781.333 502.667L781.667 503.333L781.333 502.667z"/>
<path style="fill:#678970; stroke:none;" d="M782 502L786 504L786 503L782 502z"/>
<path style="fill:#e9ae46; stroke:none;" d="M835 502L836 503L835 502M245 503L240 510L245 503z"/>
<path style="fill:#678970; stroke:none;" d="M246 503L247 504L246 503M442 503L443 504L442 503M543 503L539 505L539 506L544 504L543 503z"/>
<path style="fill:#e9ae46; stroke:none;" d="M641 503L642 504L641 503M687 503L687 504L692 504L687 503z"/>
<path style="fill:#678970; stroke:none;" d="M745 503L746 504L745 503z"/>
<path style="fill:#c23f57; stroke:none;" d="M245 504L246 505L245 504z"/>
<path style="fill:#252724; stroke:none;" d="M246 504L243 512L244 512C244.948 508.898 245.749 508.134 249 508L246 504z"/>
<path style="fill:#c23f57; stroke:none;" d="M247 504L248 505L247 504z"/>
<path style="fill:#e9ae46; stroke:none;" d="M443 504L444 505L443 504M543 504L544 505L543 504z"/>
<path style="fill:#678970; stroke:none;" d="M563 504L564 588L565 588L564 530L563 504z"/>
<path style="fill:#e9ae46; stroke:none;" d="M640 504L641 505L640 504M693.667 504.333L694.333 504.667L693.667 504.333z"/>
<path style="fill:#678970; stroke:none;" d="M744 504L741 510L742 510L744 504z"/>
<path style="fill:#e9ae46; stroke:none;" d="M785.667 504.333L786.333 504.667L785.667 504.333z"/>
<path style="fill:#678970; stroke:none;" d="M787 504L787 505L792 506L792 505L787 504z"/>
<path style="fill:#e9ae46; stroke:none;" d="M834 504L835 505L834 504z"/>
<path style="fill:#678970; stroke:none;" d="M244 505L243 507L244 505z"/>
<path style="fill:#c23f57; stroke:none;" d="M248 505L249 508C245.44 507.453 244.581 508.51 244 512L243 512L241 509L236 524C231.03 524.741 232.224 535.931 232 540L233 540L233 536L234 536C235.368 540.12 238.115 539.714 242 540L245 529L244 540L245 540C248.302 528.256 259.356 513.029 248 505z"/>
<path style="fill:#678970; stroke:none;" d="M382 506L382 507L409 506C402.362 503.215 388.85 503.975 382 506M443 505L444 506L443 505z"/>
<path style="fill:#e9ae46; stroke:none;" d="M541 505L542 506L541 505z"/>
<path style="fill:#678970; stroke:none;" d="M636.667 505.333L637.333 505.667L636.667 505.333z"/>
<path style="fill:#e9ae46; stroke:none;" d="M638 505L639 506L638 505M702 505L702 506L708 506L702 505M744 505L745 506L744 505M789 505L790 506L789 505z"/>
<path style="fill:#678970; stroke:none;" d="M833 505L831 510L832 510L833 505z"/>
<path style="fill:#c23f57; stroke:none;" d="M244 506L245 507L244 506z"/>
<path style="fill:#e9ae46; stroke:none;" d="M383 506C381.59 510.769 379.297 529.561 383.603 532.972C388.025 536.474 401.49 534 407 534L407 533L383 533L383 506z"/>
<path style="fill:#ffffff; stroke:none;" d="M383 533L404 533C407.334 532.999 410.746 533.146 414 532.291C423.83 529.708 427.757 516.656 419.471 509.728C413.594 504.814 403.081 506 396 506C392.849 506 386.261 504.784 384.028 507.603C380.303 512.306 383 527.113 383 533z"/>
<path style="fill:#e9ae46; stroke:none;" d="M410 506L410 507L413 507L410 506z"/>
<path style="fill:#678970; stroke:none;" d="M413 506L413 507L418 508L418 507L413 506z"/>
<path style="fill:#e9ae46; stroke:none;" d="M444 506L445 507L444 506z"/>
<path style="fill:#678970; stroke:none;" d="M487 506L488.028 530.397L500 532L533 532L533 531L488 531L487 506z"/>
<path style="fill:#e9ae46; stroke:none;" d="M488.333 506.667L488.667 507.333L488.333 506.667M490 506L490 507L538 507C525.586 501.791 503.526 506 490 506z"/>
<path style="fill:#678970; stroke:none;" d="M585 506L586 507L585 506z"/>
<path style="fill:#e9ae46; stroke:none;" d="M586 506L586 507L636 507C623.11 501.591 600.049 506 586 506z"/>
<path style="fill:#678970; stroke:none;" d="M793 506L793 507L799 509L799 508L793 506z"/>
<path style="fill:#e9ae46; stroke:none;" d="M833 506L834 507L833 506z"/>
<path style="fill:#c23f57; stroke:none;" d="M243 507L244 508L243 507z"/>
<path style="fill:#e9ae46; stroke:none;" d="M414.667 507.333L415.333 507.667L414.667 507.333z"/>
<path style="fill:#678970; stroke:none;" d="M444.333 507.667L444.667 508.333L444.333 507.667z"/>
<path style="fill:#e9ae46; stroke:none;" d="M585 507C585 513.232 582.308 527.31 588 531L588 530L585 507M743 507L744 508L743 507M794 507L795 508L794 507z"/>
<path style="fill:#c23f57; stroke:none;" d="M242 508L243 509L242 508z"/>
<path style="fill:#678970; stroke:none;" d="M418.667 508.333L419.333 508.667L418.667 508.333z"/>
<path style="fill:#e9ae46; stroke:none;" d="M742 508L743 509L742 508M797 508L798 509L797 508M832 508L833 509L832 508z"/>
<path style="fill:#252724; stroke:none;" d="M250 509L254 514L250 509z"/>
<path style="fill:#678970; stroke:none;" d="M420 509L424 524L425 524C424.996 517.959 424.836 513.16 420 509z"/>
<path style="fill:#e9ae46; stroke:none;" d="M445 509L446 510L445 509M799 509L800 510L799 509z"/>
<path style="fill:#678970; stroke:none;" d="M800 509L801 510L800 509z"/>
<path style="fill:#e9ae46; stroke:none;" d="M420 510L421 511L420 510z"/>
<path style="fill:#678970; stroke:none;" d="M445 510L445 513L446 513L445 510M740 510C739.374 514.422 741.516 516.463 745 519L740 510z"/>
<path style="fill:#e9ae46; stroke:none;" d="M801 510L803 512L801 510z"/>
<path style="fill:#678970; stroke:none;" d="M802 510L803 511L802 510M830 510L829 514L830 514L830 510z"/>
<path style="fill:#e9ae46; stroke:none;" d="M239 511L240 512L239 511M421 511L422 512L421 511M740 511L741 512L740 511z"/>
<path style="fill:#678970; stroke:none;" d="M803 511L804 512L803 511z"/>
<path style="fill:#e9ae46; stroke:none;" d="M238.333 512.667L238.667 513.333L238.333 512.667z"/>
<path style="fill:#678970; stroke:none;" d="M804 512L804 513L810 516L804 512z"/>
<path style="fill:#e9ae46; stroke:none;" d="M830 512L831 513L830 512M422 513L423 514L422 513M446 513L446 516L447 516L446 513M740 513L741 514L740 513M805 513L806 514L805 513M237 514L238 515L237 514z"/>
<path style="fill:#252724; stroke:none;" d="M239.667 514.333L240.333 514.667L239.667 514.333z"/>
<path style="fill:#e9ae46; stroke:none;" d="M741 514L742 515L741 514M807 514L808 515L807 514z"/>
<path style="fill:#678970; stroke:none;" d="M828 514L829 515L828 514M237 515L238 516L237 515M254 515L253 517L254 515z"/>
<path style="fill:#e9ae46; stroke:none;" d="M423 515L424 516L423 515M709 515L710 516L709 515M742 515L743 516L742 515M808 515L809 516L808 515M828 515L829 516L828 515M236 516L237 517L236 516z"/>
<path style="fill:#252724; stroke:none;" d="M238 516L239 517L238 516M251.333 516.667L251.667 517.333L251.333 516.667z"/>
<path style="fill:#e9ae46; stroke:none;" d="M254 516L255 517L254 516z"/>
<path style="fill:#678970; stroke:none;" d="M446 516L446 521L447 521L446 516z"/>
<path style="fill:#e9ae46; stroke:none;" d="M743 516L744 517L743 516z"/>
<path style="fill:#678970; stroke:none;" d="M810 516L811 517L810 516M827 516L828 517L827 516M236 517L237 518L236 517z"/>
<path style="fill:#e9ae46; stroke:none;" d="M253 517L254 518L253 517M744 517L745 518L744 517z"/>
<path style="fill:#678970; stroke:none;" d="M811 517L812 518L811 517z"/>
<path style="fill:#e9ae46; stroke:none;" d="M827 517L828 518L827 517M235.333 518.667L235.667 519.333L235.333 518.667z"/>
<path style="fill:#252724; stroke:none;" d="M237.333 518.667L237.667 519.333L237.333 518.667z"/>
<path style="fill:#e9ae46; stroke:none;" d="M252 518L251 521L252 518z"/>
<path style="fill:#678970; stroke:none;" d="M812 518L812 519L817 522L812 518M826 518L825 521L826 521L826 518M251 519L252 520L251 519z"/>
<path style="fill:#e9ae46; stroke:none;" d="M707 519L708 520L707 519M745 519L746 520L745 519M813 519L814 520L813 519M826 519L827 520L826 519M234 520L234 523L235 523L234 520z"/>
<path style="fill:#252724; stroke:none;" d="M248 520L248 523L249 523L250 520L248 520z"/>
<path style="fill:#678970; stroke:none;" d="M707 520L708 521L707 520z"/>
<path style="fill:#e9ae46; stroke:none;" d="M746 520L749 523L746 520M814 520L815 521L814 520z"/>
<path style="fill:#678970; stroke:none;" d="M250 521L251 522L250 521z"/>
<path style="fill:#e9ae46; stroke:none;" d="M446 521L446 525L447 525L446 521M706 521L707 522L706 521z"/>
<path style="fill:#678970; stroke:none;" d="M746 521L747 522L746 521z"/>
<path style="fill:#e9ae46; stroke:none;" d="M815 521L816 522L815 521M825 521L826 522L825 521z"/>
<path style="fill:#252724; stroke:none;" d="M235.333 522.667L235.667 523.333L235.333 522.667z"/>
<path style="fill:#e9ae46; stroke:none;" d="M250 522L251 523L250 522z"/>
<path style="fill:#678970; stroke:none;" d="M706 522L705 525L706 522M747 522L748 523L747 522M817 522L818 523L817 522M824 522L825 523L824 522z"/>
<path style="fill:#e9ae46; stroke:none;" d="M233 523L233 526L234 526L233 523z"/>
<path style="fill:#252724; stroke:none;" d="M239 523L240 524L239 523z"/>
<path style="fill:#678970; stroke:none;" d="M249 523L250 524L249 523z"/>
<path style="fill:#e9ae46; stroke:none;" d="M705 523L706 524L705 523z"/>
<path style="fill:#678970; stroke:none;" d="M748 523L749 524L748 523M818 523L823 527L823 526L818 523z"/>
<path style="fill:#e9ae46; stroke:none;" d="M249.333 524.667L249.667 525.333L249.333 524.667M423 524L424 525L423 524z"/>
<path style="fill:#678970; stroke:none;" d="M749 524L750 525L749 524z"/>
<path style="fill:#e9ae46; stroke:none;" d="M818 524L819 525L818 524z"/>
<path style="fill:#678970; stroke:none;" d="M823 524L824 525L823 524M423 525L424 526L423 525M445 525L445 528L446 528L445 525z"/>
<path style="fill:#e9ae46; stroke:none;" d="M704 525L705 526L704 525z"/>
<path style="fill:#678970; stroke:none;" d="M750 525L752 528L750 525z"/>
<path style="fill:#e9ae46; stroke:none;" d="M819 525L820 526L819 525M823 525L824 526L823 525M248 526L248 529L249 529L248 526M422 526L423 527L422 526z"/>
<path style="fill:#678970; stroke:none;" d="M704 526L705 527L704 526M730 526L730 528L732 528L730 526z"/>
<path style="fill:#e9ae46; stroke:none;" d="M751 526L752 527L751 526M820 526L821 527L820 526M232 527L232 530L233 530L232 527z"/>
<path style="fill:#252724; stroke:none;" d="M247 527L248 528L247 527z"/>
<path style="fill:#678970; stroke:none;" d="M422 527L423 528L422 527z"/>
<path style="fill:#e9ae46; stroke:none;" d="M821.667 527.333L822.333 527.667L821.667 527.333z"/>
<path style="fill:#678970; stroke:none;" d="M421 528L422 529L421 528M444.333 528.667L444.667 529.333L444.333 528.667M703 528L701 534L702 534L703 528M729 528L728 531L729 531L729 528M732.333 528.667L732.667 529.333L732.333 528.667z"/>
<path style="fill:#e9ae46; stroke:none;" d="M752 528L753 529L752 528z"/>
<path style="fill:#252724; stroke:none;" d="M244 529L242 540C245.667 537.441 246.635 532.619 244 529z"/>
<path style="fill:#678970; stroke:none;" d="M247 529L248 530L247 529M420 529L421 530L420 529z"/>
<path style="fill:#e9ae46; stroke:none;" d="M702 529L703 530L702 529M729 529L730 530L729 529M753 529L755 531L753 529M247.333 530.667L247.667 531.333L247.333 530.667M418 530L419 531L418 530z"/>
<path style="fill:#678970; stroke:none;" d="M419 530L420 531L419 530z"/>
<path style="fill:#e9ae46; stroke:none;" d="M444 530L445 531L444 530M488 530L489 531L488 530z"/>
<path style="fill:#678970; stroke:none;" d="M585 530L598 532L631 532L631 531L585 530M733 530L734 531L733 530M753 530L754 531L753 530M417 531L418 532L417 531M443 531L444 532L443 531z"/>
<path style="fill:#e9ae46; stroke:none;" d="M533 531L533 532L536 532L533 531M631.667 531.333L632.333 531.667L631.667 531.333M701 531L702 532L701 531M728 531L729 532L728 531M733 531L734 532L733 531z"/>
<path style="fill:#678970; stroke:none;" d="M754 531L755 532L754 531z"/>
<path style="fill:#e9ae46; stroke:none;" d="M231 532L231 540L232 540L231 532M413 532L414 533L413 532z"/>
<path style="fill:#678970; stroke:none;" d="M414.667 532.333L415.333 532.667L414.667 532.333z"/>
<path style="fill:#e9ae46; stroke:none;" d="M443 532L444 533L443 532z"/>
<path style="fill:#678970; stroke:none;" d="M536 532L536 533L540 535L536 532z"/>
<path style="fill:#e9ae46; stroke:none;" d="M538 532L539 533L538 532z"/>
<path style="fill:#678970; stroke:none;" d="M634 532L635 533L634 532z"/>
<path style="fill:#e9ae46; stroke:none;" d="M635 532L636 533L635 532z"/>
<path style="fill:#678970; stroke:none;" d="M727 532L724 539L725 539L727 532M734 532L736 534L736 532L734 532z"/>
<path style="fill:#e9ae46; stroke:none;" d="M755 532L757 534L755 532z"/>
<path style="fill:#252724; stroke:none;" d="M232 533L232 536L233 536L232 533z"/>
<path style="fill:#678970; stroke:none;" d="M382 533L383 534L382 533M383 534L383 535L414 534L383 534M442 533L443 534L442 533z"/>
<path style="fill:#e9ae46; stroke:none;" d="M539 533L540 534L539 533z"/>
<path style="fill:#678970; stroke:none;" d="M636 533L637 534L636 533z"/>
<path style="fill:#e9ae46; stroke:none;" d="M727 533L728 534L727 533M734 533L735 534L734 533z"/>
<path style="fill:#678970; stroke:none;" d="M755 533L756 534L755 533M246.333 534.667L246.667 535.333L246.333 534.667z"/>
<path style="fill:#e9ae46; stroke:none;" d="M442 534L443 535L442 534z"/>
<path style="fill:#678970; stroke:none;" d="M637 534L638 535L637 534M700.333 534.667L700.667 535.333L700.333 534.667z"/>
<path style="fill:#e9ae46; stroke:none;" d="M735 534L736 535L735 534z"/>
<path style="fill:#678970; stroke:none;" d="M756 534L757 535L756 534M441 535L442 536L441 535z"/>
<path style="fill:#e9ae46; stroke:none;" d="M540 535L542 537L540 535z"/>
<path style="fill:#678970; stroke:none;" d="M638 535L638 543L639 543L638 535z"/>
<path style="fill:#e9ae46; stroke:none;" d="M726 535L727 536L726 535z"/>
<path style="fill:#678970; stroke:none;" d="M736 535L738 540L739 540L736 535z"/>
<path style="fill:#e9ae46; stroke:none;" d="M757 535L759 537L757 535z"/>
<path style="fill:#252724; stroke:none;" d="M233 536L235 540L233 536M236 536L237 537L236 536z"/>
<path style="fill:#e9ae46; stroke:none;" d="M246 536L246 540L232 540C233.367 561.233 243.602 587.651 268 592L268 591L250 581L250 580C254.214 576.355 256.907 571.358 263 573L250.389 556L245 541L246 536z"/>
<path style="fill:#678970; stroke:none;" d="M440 536L441 537L440 536M540 536L541 537L540 536z"/>
<path style="fill:#e9ae46; stroke:none;" d="M699 536L700 537L699 536M736 536L737 537L736 536z"/>
<path style="fill:#678970; stroke:none;" d="M757 536L758 537L757 536M439 537L440 538L439 537M541 537L539 546L540 546L541 537M699 537L700 538L699 537z"/>
<path style="fill:#e9ae46; stroke:none;" d="M725 537L726 538L725 537z"/>
<path style="fill:#678970; stroke:none;" d="M758 537L759 538L758 537M245.333 538.667L245.667 539.333L245.333 538.667M438 538L439 539L438 538z"/>
<path style="fill:#e9ae46; stroke:none;" d="M639 538L640 539L639 538M698 538L699 539L698 538M737 538L738 539L737 538z"/>
<path style="fill:#678970; stroke:none;" d="M759.333 538.667L759.667 539.333L759.333 538.667z"/>
<path style="fill:#252724; stroke:none;" d="M240 539L241 540L240 539z"/>
<path style="fill:#678970; stroke:none;" d="M437 539L434 541L434 542L438 540L437 539M698 539L697 543L698 543L698 539z"/>
<path style="fill:#e9ae46; stroke:none;" d="M724 539L725 540L724 539z"/>
<path style="fill:#678970; stroke:none;" d="M291 540C291.012 555.691 312.987 550 325 550C322.091 563.573 313.724 565.638 326 577L327 577C336.362 566.736 340.991 553.804 341 540L291 540z"/>
<path style="fill:#e9ae46; stroke:none;" d="M437 540L438 541L437 540M697 540L698 541L697 540z"/>
<path style="fill:#678970; stroke:none;" d="M723 540L724 541L723 540M739 540L740 544L741 544L739 540M760 540L761 541L760 540z"/>
<path style="fill:#e9ae46; stroke:none;" d="M341 541L342 542L341 541M435 541L436 542L435 541M639 541L640 542L639 541M723 541L724 542L723 541M761 541L763 543L761 541z"/>
<path style="fill:#678970; stroke:none;" d="M432 542L433 543L432 542z"/>
<path style="fill:#e9ae46; stroke:none;" d="M433 542L434 543L433 542M541 542L542 543L541 542z"/>
<path style="fill:#678970; stroke:none;" d="M722 542L723 543L722 542z"/>
<path style="fill:#e9ae46; stroke:none;" d="M739 542L740 543L739 542z"/>
<path style="fill:#678970; stroke:none;" d="M761 542L762 543L761 542z"/>
<path style="fill:#c23f57; stroke:none;" d="M238 543L238 544L244 546C245.356 542.402 240.535 543.01 238 543z"/>
<path style="fill:#678970; stroke:none;" d="M430 543L431 544L430 543z"/>
<path style="fill:#e9ae46; stroke:none;" d="M431 543L432 544L431 543M638 543L639 544L638 543M696 543L697 544L696 543M722 543L723 544L722 543z"/>
<path style="fill:#678970; stroke:none;" d="M762 543L764 546L762 543M425 545L425 546L429 545L425 545z"/>
<path style="fill:#e9ae46; stroke:none;" d="M429.667 544.333L430.333 544.667L429.667 544.333M540 544L541 545L540 544z"/>
<path style="fill:#678970; stroke:none;" d="M637 544L638 545L637 544M696 544L697 545L696 544M721 544L720 548L721 548L721 544M741 544L742 545L741 544z"/>
<path style="fill:#e9ae46; stroke:none;" d="M763 544L764 545L763 544M427 545L428 546L427 545z"/>
<path style="fill:#678970; stroke:none;" d="M636 545L635 547L636 545z"/>
<path style="fill:#e9ae46; stroke:none;" d="M695 545L696 546L695 545M741 545L742 546L741 545z"/>
<path style="fill:#678970; stroke:none;" d="M422 546L424 550L422 546z"/>
<path style="fill:#e9ae46; stroke:none;" d="M423 546L424 547L423 546z"/>
<path style="fill:#678970; stroke:none;" d="M537 546L538 547L537 546z"/>
<path style="fill:#e9ae46; stroke:none;" d="M538 546L539 547L538 546M636 546L637 547L636 546z"/>
<path style="fill:#678970; stroke:none;" d="M695.333 546.667L695.667 547.333L695.333 546.667z"/>
<path style="fill:#e9ae46; stroke:none;" d="M721 546L722 547L721 546z"/>
<path style="fill:#678970; stroke:none;" d="M742.333 546.667L742.667 547.333L742.333 546.667z"/>
<path style="fill:#e9ae46; stroke:none;" d="M764 546L765 547L764 546z"/>
<path style="fill:#c23f57; stroke:none;" d="M233 547C234.331 551.062 234.371 559.008 239 560L238 564L243 568L243 572L244 572L243 569L249 570L245 570C246.108 576.763 253.86 575.17 254.241 568.907C254.634 562.453 247.17 554.881 246 548L245 548L245 550L244 550L243 547L233 547z"/>
<path style="fill:#e9ae46; stroke:none;" d="M422 547L423 548L422 547z"/>
<path style="fill:#678970; stroke:none;" d="M544 579L544 578L488 577L489.028 550.318L501 548L536 548C526.926 544.192 511.847 547 502 547C498.348 547 492.674 545.952 489.318 547.603C485.291 549.585 485.133 574.224 488.603 576.972C491.85 579.544 500.071 578 504 578C517.323 578 530.779 577.329 544 579z"/>
<path style="fill:#e9ae46; stroke:none;" d="M536 547L537 548L536 547z"/>
<path style="fill:#678970; stroke:none;" d="M585 548L585 549L634 548L619 547L585 548M764 547L765 548L764 547z"/>
<path style="fill:#e9ae46; stroke:none;" d="M423 548L424 549L423 548M490.667 548.333L491.333 548.667L490.667 548.333M586 548L587 549L586 548z"/>
<path style="fill:#678970; stroke:none;" d="M694.333 548.667L694.667 549.333L694.333 548.667z"/>
<path style="fill:#e9ae46; stroke:none;" d="M720.333 548.667L720.667 549.333L720.333 548.667z"/>
<path style="fill:#678970; stroke:none;" d="M743 548L744 552L745 552L743 548M765 548L767 551L765 548z"/>
<path style="fill:#e9ae46; stroke:none;" d="M291 549L292 550L291 549M340 549L341 550L340 549z"/>
<path style="fill:#678970; stroke:none;" d="M383 549L383 550L392 550L383 549z"/>
<path style="fill:#e9ae46; stroke:none;" d="M424 549L425 550L424 549M585 549L585 576L586 576L585 549z"/>
<path style="fill:#678970; stroke:none;" d="M719.333 549.667L719.667 550.333L719.333 549.667z"/>
<path style="fill:#e9ae46; stroke:none;" d="M766 549L767 550L766 549M324 550L325 551L324 550z"/>
<path style="fill:#678970; stroke:none;" d="M382 550L383 551L382 550z"/>
<path style="fill:#e9ae46; stroke:none;" d="M394.667 550.333L395.333 550.667L394.667 550.333z"/>
<path style="fill:#678970; stroke:none;" d="M396.667 550.333L397.333 550.667L396.667 550.333M425 550L426 551L425 550z"/>
<path style="fill:#e9ae46; stroke:none;" d="M693 550L694 551L693 550M743 550L744 551L743 550M382 551L382 588L383 588C383 577.351 386.111 560.798 382 551M398 551L399 552L398 551z"/>
<path style="fill:#678970; stroke:none;" d="M399 551L400 552L399 551M426 551L427 552L426 551z"/>
<path style="fill:#e9ae46; stroke:none;" d="M488 551L489 552L488 551z"/>
<path style="fill:#678970; stroke:none;" d="M693.333 551.667L693.667 552.333L693.333 551.667z"/>
<path style="fill:#e9ae46; stroke:none;" d="M719 551L720 552L719 551M767 551L768 552L767 551z"/>
<path style="fill:#678970; stroke:none;" d="M400 552L400 553L403 554L400 552M427 552L428 553L427 552z"/>
<path style="fill:#e9ae46; stroke:none;" d="M744 552L745 553L744 552z"/>
<path style="fill:#678970; stroke:none;" d="M767 552L768 553L767 552z"/>
<path style="fill:#e9ae46; stroke:none;" d="M324 553L325 554L324 553M401 553L402 554L401 553z"/>
<path style="fill:#678970; stroke:none;" d="M428 553L429 554L428 553z"/>
<path style="fill:#e9ae46; stroke:none;" d="M692 553L693 554L692 553z"/>
<path style="fill:#678970; stroke:none;" d="M718 553L719 554L718 553M745 553L748 561L749 561L745 553z"/>
<path style="fill:#e9ae46; stroke:none;" d="M768 553L770 555L768 553M323 554L324 555L323 554M339.333 554.667L339.667 555.333L339.333 554.667z"/>
<path style="fill:#678970; stroke:none;" d="M404 554L407 559L408 559L404 554M429 554L430 555L429 554M692.333 554.667L692.667 555.333L692.333 554.667z"/>
<path style="fill:#e9ae46; stroke:none;" d="M718.333 554.667L718.667 555.333L718.333 554.667M745 554L746 555L745 554z"/>
<path style="fill:#678970; stroke:none;" d="M768 554L769 555L768 554z"/>
<path style="fill:#e9ae46; stroke:none;" d="M404 555L405 556L404 555z"/>
<path style="fill:#678970; stroke:none;" d="M430 555L434 560L430 555z"/>
<path style="fill:#e9ae46; stroke:none;" d="M691.333 555.667L691.667 556.333L691.333 555.667z"/>
<path style="fill:#678970; stroke:none;" d="M717 555L716 560L717 560L717 555M769 555L770 556L769 555z"/>
<path style="fill:#e9ae46; stroke:none;" d="M338.333 556.667L338.667 557.333L338.333 556.667M405 556L406 557L405 556M770 556L771 557L770 556M322 557L323 558L322 557M432 557L433 558L432 557z"/>
<path style="fill:#678970; stroke:none;" d="M691 557L692 558L691 557z"/>
<path style="fill:#e9ae46; stroke:none;" d="M746 557L747 558L746 557z"/>
<path style="fill:#678970; stroke:none;" d="M770 557L772 560L770 557z"/>
<path style="fill:#e9ae46; stroke:none;" d="M433 558L434 559L433 558M690 558L691 559L690 558M717 558L718 559L717 558M771 558L772 559L771 558M321 559L322 560L321 559z"/>
<path style="fill:#678970; stroke:none;" d="M408 559L409 562L410 562L408 559M690.333 559.667L690.667 560.333L690.333 559.667z"/>
<path style="fill:#e9ae46; stroke:none;" d="M747 559L748 560L747 559M320 560L321 561L320 560M337 560L338 561L337 560M408 560L409 561L408 560z"/>
<path style="fill:#678970; stroke:none;" d="M434 560L435 561L434 560z"/>
<path style="fill:#e9ae46; stroke:none;" d="M716 560L717 561L716 560M772 560L773 561L772 560M435 561L438 564L435 561M689 561L690 562L689 561M748 561L749 562L748 561z"/>
<path style="fill:#678970; stroke:none;" d="M772 561L773 562L772 561z"/>
<path style="fill:#e9ae46; stroke:none;" d="M248 562L249 565L248 562M319 562L320 563L319 562M336.333 562.667L336.667 563.333L336.333 562.667z"/>
<path style="fill:#678970; stroke:none;" d="M410 562L412 564L410 562M435 562L436 563L435 562M689 562L690 563L689 562M715.333 562.667L715.667 563.333L715.333 562.667M749.333 562.667L749.667 563.333L749.333 562.667z"/>
<path style="fill:#e9ae46; stroke:none;" d="M773 562L774 563L773 562M410 563L411 564L410 563z"/>
<path style="fill:#678970; stroke:none;" d="M436 563L437 564L436 563M773 563L774 564L773 563z"/>
<path style="fill:#e9ae46; stroke:none;" d="M318 564L319 565L318 564M411 564L412 565L411 564z"/>
<path style="fill:#678970; stroke:none;" d="M437 564L438 565L437 564z"/>
<path style="fill:#e9ae46; stroke:none;" d="M688 564L689 565L688 564M715.333 564.667L715.667 565.333L715.333 564.667z"/>
<path style="fill:#678970; stroke:none;" d="M750 564L751 569L752 569L750 564M774.333 564.667L774.667 565.333L774.333 564.667M412 565L413 568L414 568L412 565z"/>
<path style="fill:#e9ae46; stroke:none;" d="M438 565L439 566L438 565z"/>
<path style="fill:#678970; stroke:none;" d="M688 565L689 566L688 565M714 565L714 568L715 568L714 565z"/>
<path style="fill:#e9ae46; stroke:none;" d="M334 566L335 567L334 566M412 566L413 567L412 566z"/>
<path style="fill:#678970; stroke:none;" d="M438 566L439 567L438 566z"/>
<path style="fill:#e9ae46; stroke:none;" d="M687 566L688 567L687 566M750.333 566.667L750.667 567.333L750.333 566.667M775 566L776 567L775 566M316 567L316 569L318 569L316 567z"/>
<path style="fill:#678970; stroke:none;" d="M439 567L441 570L439 567M687 567L685 575L686 575L687 567M775 567L776 568L775 567z"/>
<path style="fill:#e9ae46; stroke:none;" d="M252 568L253 569L252 568M333 568L334 569L333 568z"/>
<path style="fill:#678970; stroke:none;" d="M414 568L416 571L414 568z"/>
<path style="fill:#e9ae46; stroke:none;" d="M440 568L441 569L440 568M714.333 568.667L714.667 569.333L714.333 568.667M776 568L777 569L776 568M288 580L288 591L287 591C287 579.855 284.601 579.34 274 578L274 579L286 580L286 595C301.715 594.166 312.527 589.538 325 580C316.552 561.896 302.076 578.85 288 580M318 569L319 570L318 569M686 569L687 570L686 569z"/>
<path style="fill:#678970; stroke:none;" d="M713 569L713 572L714 572L713 569z"/>
<path style="fill:#e9ae46; stroke:none;" d="M751 569L752 570L751 569z"/>
<path style="fill:#678970; stroke:none;" d="M776 569L777 570L776 569z"/>
<path style="fill:#e9ae46; stroke:none;" d="M441 570L442 571L441 570z"/>
<path style="fill:#678970; stroke:none;" d="M752.333 570.667L752.667 571.333L752.333 570.667z"/>
<path style="fill:#e9ae46; stroke:none;" d="M777 570L778 571L777 570z"/>
<path style="fill:#c23f57; stroke:none;" d="M250 580L250 581C260.107 589.615 272.644 594.724 286 595L286 580L270 576.677L259.001 571.881L250 580z"/>
<path style="fill:#e9ae46; stroke:none;" d="M320 571L321 572L320 571M415 571L416 572L415 571z"/>
<path style="fill:#678970; stroke:none;" d="M441 571L442 572L441 571M777 571L779 577L780 577L777 571z"/>
<path style="fill:#e9ae46; stroke:none;" d="M248 572L249 573L248 572M321 572L322 573L321 572z"/>
<path style="fill:#678970; stroke:none;" d="M416 572L417 573L416 572z"/>
<path style="fill:#e9ae46; stroke:none;" d="M442 572L444 574L442 572M685 572L686 573L685 572M713 572L713 575L714 575L713 572M752 572L753 573L752 572M778 572L779 573L778 572M264 573L267 575L264 573M322.333 573.667L322.667 574.333L322.333 573.667z"/>
<path style="fill:#678970; stroke:none;" d="M417 573L418 574L417 573M442 573L443 574L442 573M753 573L754 574L753 573z"/>
<path style="fill:#e9ae46; stroke:none;" d="M417 574L418 575L417 574z"/>
<path style="fill:#678970; stroke:none;" d="M443.333 574.667L443.667 575.333L443.333 574.667z"/>
<path style="fill:#e9ae46; stroke:none;" d="M684.333 574.667L684.667 575.333L684.333 574.667z"/>
<path style="fill:#678970; stroke:none;" d="M712.333 574.667L712.667 575.333L712.333 574.667z"/>
<path style="fill:#e9ae46; stroke:none;" d="M753.333 574.667L753.667 575.333L753.333 574.667M779 574L780 575L779 574M267.667 575.333L268.333 575.667L267.667 575.333M324 575L325 576L324 575M328 575L329 576L328 575z"/>
<path style="fill:#678970; stroke:none;" d="M418 575L419 576L418 575M754 575L755 581L756 581L754 575z"/>
<path style="fill:#e9ae46; stroke:none;" d="M269.667 576.333L270.333 576.667L269.667 576.333M325 576L326 577L325 576M327 576L328 577L327 576M418 576L419 577L418 576z"/>
<path style="fill:#678970; stroke:none;" d="M444.333 576.667L444.667 577.333L444.333 576.667z"/>
<path style="fill:#e9ae46; stroke:none;" d="M488 576L489 577L488 576z"/>
<path style="fill:#678970; stroke:none;" d="M585 576L586 577L585 576M684 576L684 579L685 579L684 576z"/>
<path style="fill:#e9ae46; stroke:none;" d="M712.333 576.667L712.667 577.333L712.333 576.667M780.333 576.667L780.667 577.333L780.333 576.667M271.667 577.333L272.333 577.667L271.667 577.333z"/>
<path style="fill:#678970; stroke:none;" d="M419 577L420 578L419 577z"/>
<path style="fill:#e9ae46; stroke:none;" d="M541 577L542 578L541 577z"/>
<path style="fill:#678970; stroke:none;" d="M586 577L586 578L638 578L621 577L586 577z"/>
<path style="fill:#e9ae46; stroke:none;" d="M638.667 577.333L639.333 577.667L638.667 577.333z"/>
<path style="fill:#678970; stroke:none;" d="M420.333 578.667L420.667 579.333L420.333 578.667z"/>
<path style="fill:#e9ae46; stroke:none;" d="M445 578L446 579L445 578z"/>
<path style="fill:#678970; stroke:none;" d="M639 578L639 579L644 582L639 578z"/>
<path style="fill:#e9ae46; stroke:none;" d="M641 578L642 579L641 578M683.333 578.667L683.667 579.333L683.333 578.667M754 578L755 579L754 578z"/>
<path style="fill:#678970; stroke:none;" d="M780 578L782 584L783 584L780 578M445 579L446 580L445 579M544 579L545 580L544 579z"/>
<path style="fill:#e9ae46; stroke:none;" d="M642 579L643 580L642 579M781 579L782 580L781 579z"/>
<path style="fill:#678970; stroke:none;" d="M421 580L422 583L423 583L421 580z"/>
<path style="fill:#e9ae46; stroke:none;" d="M446 580L447 581L446 580z"/>
<path style="fill:#678970; stroke:none;" d="M545 580L546 581L545 580M683 580L682 585L683 585L683 580M711.333 580.667L711.667 581.333L711.333 580.667z"/>
<path style="fill:#e9ae46; stroke:none;" d="M421 581L422 582L421 581z"/>
<path style="fill:#678970; stroke:none;" d="M446 581L447 582L446 581M546.333 581.667L546.667 582.333L546.333 581.667z"/>
<path style="fill:#e9ae46; stroke:none;" d="M682 581L683 582L682 581M755 581L756 582L755 581M782 581L783 582L782 581M447 582L448 583L447 582M644 582L645 583L644 582M711 582L712 583L711 582z"/>
<path style="fill:#678970; stroke:none;" d="M756.333 582.667L756.667 583.333L756.333 582.667M447 583L447 588L448 588L447 583z"/>
<path style="fill:#e9ae46; stroke:none;" d="M547 583L547 588L548 588L547 583z"/>
<path style="fill:#678970; stroke:none;" d="M644.333 583.667L644.667 584.333L644.333 583.667z"/>
<path style="fill:#e9ae46; stroke:none;" d="M423 584L424 585L423 584M563.333 584.667L563.667 585.333L563.333 584.667M645 584L645 588L646 588L645 584M756 584L757 585L756 584M783 584L784 585L783 584z"/>
<path style="fill:#678970; stroke:none;" d="M361 585L366 595L361 585M424 585L425 588L426 588L424 585z"/>
<path style="fill:#e9ae46; stroke:none;" d="M448 585L448 590L449 590L448 585M681 585L682 586L681 585z"/>
<path style="fill:#678970; stroke:none;" d="M710 585L710 589L711 589L710 585M783 585L784 586L783 585z"/>
<path style="fill:#e9ae46; stroke:none;" d="M424 586L425 587L424 586z"/>
<path style="fill:#678970; stroke:none;" d="M681.333 586.667L681.667 587.333L681.333 586.667M757 586L759 594L760 594L757 586z"/>
<path style="fill:#e9ae46; stroke:none;" d="M784 586L785 587L784 586M466 587L467 588L466 587z"/>
<path style="fill:#678970; stroke:none;" d="M644.333 587.667L644.667 588.333L644.333 587.667z"/>
<path style="fill:#e9ae46; stroke:none;" d="M680 587L680 590L681 590L680 587z"/>
<path style="fill:#678970; stroke:none;" d="M784 587L780 591L780 592C783.089 591.328 785.14 590.361 784 587M381 588L377 595L381 588M426 588L427 591L428 591L426 588z"/>
<path style="fill:#e9ae46; stroke:none;" d="M564 588L565 589L564 588M757 588L758 589L757 588M785 588L785 591L786 591L785 588M426 589L427 590L426 589z"/>
<path style="fill:#678970; stroke:none;" d="M447 589L447 592L448 592L447 589z"/>
<path style="fill:#e9ae46; stroke:none;" d="M467 589L468 590L467 589z"/>
<path style="fill:#678970; stroke:none;" d="M546 589L547 590L546 589M565 589L566 590L565 589z"/>
<path style="fill:#e9ae46; stroke:none;" d="M644 589L645 590L644 589M710.333 589.667L710.667 590.333L710.333 589.667M361 590L362 591L361 590M381 590L382 591L381 590z"/>
<path style="fill:#678970; stroke:none;" d="M468 590L470 592L468 590z"/>
<path style="fill:#e9ae46; stroke:none;" d="M546 590L547 591L546 590z"/>
<path style="fill:#678970; stroke:none;" d="M566 590L567 591L566 590M643 590C636.273 595.369 628.188 594 620 594C602.874 594 584.722 595.823 568 592L568 593C585.127 598.429 607.113 595 625 595C630.456 595 641.199 596.851 643 590M680.333 590.667L680.667 591.333L680.333 590.667M709 590L709 595L682 595L682 596C687.517 596 712.526 599.281 709 590M428 591L430 593L428 591z"/>
<path style="fill:#e9ae46; stroke:none;" d="M468 591L469 592L468 591z"/>
<path style="fill:#678970; stroke:none;" d="M545 591L546 592L545 591z"/>
<path style="fill:#e9ae46; stroke:none;" d="M566 591L567 592L566 591M643 591L644 592L643 591M783 591L784 592L783 591M269.667 592.333L270.333 592.667L269.667 592.333z"/>
<path style="fill:#ffffff; stroke:none;" d="M287 592L288 593L287 592z"/>
<path style="fill:#e9ae46; stroke:none;" d="M362 592L363 593L362 592M380 592L381 593L380 592M428 592L429 593L428 592z"/>
<path style="fill:#678970; stroke:none;" d="M446 592L447 593L446 592M470 592L470 593L510 595L543 594L543 593C520.61 595.83 492 597.029 470 592M544 592L545 593L544 592z"/>
<path style="fill:#e9ae46; stroke:none;" d="M567 592L568 593L567 592M642 592L643 593L642 592M679 592L680 593L679 592M758 592L759 593L758 592z"/>
<path style="fill:#678970; stroke:none;" d="M777.667 592.333L778.333 592.667L777.667 592.333z"/>
<path style="fill:#e9ae46; stroke:none;" d="M779 592L780 593L779 592M271 593L271 594L275 594L271 593M363 593L364 594L363 593M379 593L380 594L379 593z"/>
<path style="fill:#678970; stroke:none;" d="M430 593L431 594L430 593M445 593L446 594L445 593z"/>
<path style="fill:#e9ae46; stroke:none;" d="M471 593L472 594L471 593M543 593L544 594L543 593M569 593L570 594L569 593M641 593L642 594L641 593z"/>
<path style="fill:#678970; stroke:none;" d="M679 593L679 596L680 596L679 593M768 595L768 596L776 594L768 595z"/>
<path style="fill:#e9ae46; stroke:none;" d="M776 593L777 594L776 593M275 594L275 595L280 595L275 594M364 594L365 595L364 594M378 594L379 595L378 594z"/>
<path style="fill:#678970; stroke:none;" d="M431 594L431 595L434 596L431 594M442 596L445 595L442 596z"/>
<path style="fill:#e9ae46; stroke:none;" d="M473.667 594.333L474.333 594.667L473.667 594.333M541 594L542 595L541 594M571.667 594.333L572.333 594.667L571.667 594.333M639 594L640 595L639 594M759 594L760 595L759 594M773.667 594.333L774.333 594.667L773.667 594.333z"/>
<path style="fill:#678970; stroke:none;" d="M366.667 595.333L367.333 595.667L366.667 595.333M375.667 595.333L376.333 595.667L375.667 595.333z"/>
<path style="fill:#e9ae46; stroke:none;" d="M432 595L433 596L432 595M443 595L444 596L443 595M709 595L710 596L709 595M770 595L771 596L770 595M367 596L367 597L376 597L367 596M434 596L434 597L440 597L434 596z"/>
<path style="fill:#678970; stroke:none;" d="M765 596L766 597L765 596z"/>
<path style="fill:#e9ae46; stroke:none;" d="M766.667 596.333L767.333 596.667L766.667 596.333z"/>
<path style="fill:#678970; stroke:none;" d="M760 597L760 598L764 598L760 597z"/>
<path style="fill:#e9ae46; stroke:none;" d="M764 597L765 598L764 597z"/>
</svg>
